<svg xmlns="http://www.w3.org/2000/svg" width="78.093" height="63" viewBox="0 0 78.093 63">
  <g id="ACCOUNT_SETTINGS" transform="translate(0 0)">
    <path id="Path_227" data-name="Path 227" d="M138.305,48.7c-3.991,1.037-7.512,3.805-11.011,7.437a5.971,5.971,0,0,1-7.823,9.018c-4.11,4.91-8.6,10.1-14.076,14.392C91.447,90.473,120.129,110.4,138.305,110.4s32.91-13.81,32.91-30.846S155.821,44.153,138.305,48.7Z" transform="translate(-101.694 -48)" fill="#f2f2f2"/>
    <ellipse id="Ellipse_30" data-name="Ellipse 30" cx="36.358" cy="2.39" rx="36.358" ry="2.39" transform="translate(5.376 58.22)" fill="#3f3d56"/>
    <ellipse id="Ellipse_31" data-name="Ellipse 31" cx="12.537" cy="1.332" rx="12.537" ry="1.332" transform="translate(30.216 59.082)" opacity="0.1"/>
    <path id="Path_228" data-name="Path 228" d="M967.41,726.212a2.756,2.756,0,0,1-3.045,3.094h-.117c-.078,0-.155-.005-.232-.011-1.518-.107-2.7-.949-2.7-3.082,0-2.207,2.82-4.992,3.033-5.2h0l.012-.012S967.41,723.918,967.41,726.212Z" transform="translate(-893.961 -668.265)" fill="#6c63ff"/>
    <path id="Path_229" data-name="Path 229" d="M984.367,728.955l1.114-1.556-1.117,1.727,0,.179c-.078,0-.155-.005-.232-.011l.12-2.294v-.018l0,0,.012-.217-1.119-1.731,1.123,1.569,0,.046.091-1.734-.958-1.789.97,1.485.094-3.595v0l-.016,2.834.954-1.124-.958,1.368-.025,1.552.891-1.49-.895,1.718-.014.863,1.294-2.074-1.3,2.375Z" transform="translate(-914.074 -668.265)" fill="#3f3d56"/>
    <circle id="Ellipse_32" data-name="Ellipse 32" cx="3.743" cy="3.743" r="3.743" transform="translate(33.618 11.362)" fill="#2f2e41"/>
    <path id="Path_230" data-name="Path 230" d="M586.73,597.35l2,8.066,2-.323-2-9.227Z" transform="translate(-540.755 -549.175)" fill="#a0616a"/>
    <path id="Path_231" data-name="Path 231" d="M695.149,757.7s-1.139.385-.989.644a3.418,3.418,0,0,1-.366,2.453c-.516.581-1.807,2.388-.323,2.452a5.869,5.869,0,0,0,2.968-.9V760.67l.258,1.549h.258v-1.742s.645-1.1.258-1.742-.64-1.208-1.126-1.152S695.149,757.7,695.149,757.7Z" transform="translate(-646.464 -701.977)" fill="#2f2e41"/>
    <path id="Path_232" data-name="Path 232" d="M482.469,702.1l-.323,1.742H484.4V702.1Z" transform="translate(-444.366 -647.082)" fill="#a0616a"/>
    <path id="Path_233" data-name="Path 233" d="M544.767,767.379s-.645-.065-.839.839-1.936,2.194-2.581,2.388-.645.839.194.968,2.968.194,3.485-.516a6.326,6.326,0,0,1,1.226-1.226l-.323,1.807h.581a8.748,8.748,0,0,1,1.032-2.323c.516-.581-1.032-1.936-1.291-1.936Z" transform="translate(-506.471 -711.009)" fill="#2f2e41"/>
    <path id="Path_234" data-name="Path 234" d="M414.535,413.287s-.452,1.226-1.226,1.42-6.517,1.549-6.517,1.549-5.033.129-3.484,1.226,4.065,0,4.065,0,7.356-.9,7.937-1.871a13.044,13.044,0,0,0,.968-2.065Z" transform="translate(-379.401 -384.664)" fill="#a0616a"/>
    <path id="Path_235" data-name="Path 235" d="M542.969,344.113s-3.678,6-3.226,6.13,4.646,1.484,4.84.968a17.476,17.476,0,0,0,.194-2.9Z" transform="translate(-505.383 -320.91)" fill="#2f2e41"/>
    <path id="Path_236" data-name="Path 236" d="M542.969,344.113s-3.678,6-3.226,6.13,4.646,1.484,4.84.968a17.476,17.476,0,0,0,.194-2.9Z" transform="translate(-505.383 -320.91)" opacity="0.1"/>
    <path id="Path_237" data-name="Path 237" d="M684.273,326l8.324,4.259s4.711,1.226,3.678,2.194-4.388-.839-4.388-.839l-9.227-4.194Z" transform="translate(-637.136 -304.213)" fill="#a0616a"/>
    <path id="Path_238" data-name="Path 238" d="M567.37,268.477s1.613,2.452,1.484,3.033a.792.792,0,0,1-.065.645,6.217,6.217,0,0,0-.129,1.807l.645.9.839-2.775.387-2.968s-.871-1.194-.742-1.775S567.37,268.477,567.37,268.477Z" transform="translate(-530.88 -250.049)" fill="#a0616a"/>
    <path id="Path_239" data-name="Path 239" d="M581.567,461.05s-3.614,9.679-3.614,13.938-1.355,9.1-.323,9.55,6.259.516,6.388,0-.645-21.488-1.032-22.327A2.55,2.55,0,0,0,581.567,461.05Z" transform="translate(-539.98 -428.684)" fill="#2f2e41"/>
    <path id="Path_240" data-name="Path 240" d="M581.567,461.05s-3.614,9.679-3.614,13.938-1.355,9.1-.323,9.55,6.259.516,6.388,0-.645-21.488-1.032-22.327A2.55,2.55,0,0,0,581.567,461.05Z" transform="translate(-539.98 -428.684)" opacity="0.1"/>
    <circle id="Ellipse_33" data-name="Ellipse 33" cx="2.388" cy="2.388" r="2.388" transform="translate(34.941 14.04)" fill="#a0616a"/>
    <path id="Path_241" data-name="Path 241" d="M578.39,286.883l-.173-1.456a2.935,2.935,0,0,0-.537,1.327c0,.581-.323,2.646,1.032,3.936s1.613,1.549,1.678,1.807.387.258.387.258l1.871,7.55s.581,20.068,1.484,20.326,3.678,0,3.872-.323-.323-8.9-.323-8.9,1.42,7.614,1.936,7.614.839-1.1.71-1.161-.9-5.033-1.226-6.582-.194-14.648-.194-14.648,1.032-1.678-2.517-4.969c0,0-2.258-6.582-2.388-6.582s-2.646-3.549-2.646-3.549-1.42,0-1.678.839S578.39,286.883,578.39,286.883Z" transform="translate(-540.352 -263.228)" fill="#2f2e41"/>
    <path id="Path_242" data-name="Path 242" d="M615.133,282.043l.774-.516s3.226,1.936,5.485,2.065,2.194,1.42,1.291,2.323-4.452,4-4.581,3.226S615.133,282.043,615.133,282.043Z" transform="translate(-574.901 -263.228)" fill="#2f2e41"/>
    <ellipse id="Ellipse_34" data-name="Ellipse 34" cx="2.581" cy="1.549" rx="2.581" ry="1.549" transform="translate(34.78 12.524)" fill="#2f2e41"/>
    <circle id="Ellipse_35" data-name="Ellipse 35" cx="1.549" cy="1.549" r="1.549" transform="translate(36.07 9.813)" fill="#2f2e41"/>
    <path id="Path_243" data-name="Path 243" d="M551.635,164.081a1.549,1.549,0,0,1,1.387-1.54,1.549,1.549,0,1,0,0,3.081A1.549,1.549,0,0,1,551.635,164.081Z" transform="translate(-516.081 -153.558)" fill="#2f2e41"/>
    <rect id="Rectangle_78" data-name="Rectangle 78" width="34.594" height="20.203" transform="translate(24.295 32.518) rotate(-9.547)" fill="#3f3d56"/>
    <path id="Path_244" data-name="Path 244" d="M512.755,462.692,490.1,466.461a.466.466,0,1,1-.153-.919l22.656-3.769a.466.466,0,1,1,.153.919Z" transform="translate(-459.164 -429.345)" fill="#6c63ff" opacity="0.3"/>
    <circle id="Ellipse_36" data-name="Ellipse 36" cx="1.931" cy="1.931" r="1.931" transform="translate(45.411 31.984)" fill="#6c63ff"/>
    <path id="Path_245" data-name="Path 245" d="M523.49,527.223l-22.656,3.769a.466.466,0,0,1-.153-.919l22.656-3.769a.466.466,0,0,1,.153.919Z" transform="translate(-469.058 -488.819)" fill="#6c63ff" opacity="0.3"/>
    <circle id="Ellipse_37" data-name="Ellipse 37" cx="1.931" cy="1.931" r="1.931" transform="translate(36.007 38.745)" fill="#6c63ff"/>
    <path id="Path_246" data-name="Path 246" d="M534.225,591.754l-22.656,3.769a.466.466,0,1,1-.153-.919l22.656-3.769a.466.466,0,1,1,.153.919Z" transform="translate(-478.952 -548.293)" fill="#6c63ff" opacity="0.3"/>
    <circle id="Ellipse_38" data-name="Ellipse 38" cx="1.931" cy="1.931" r="1.931" transform="translate(43.875 42.633)" fill="#6c63ff"/>
    <circle id="Ellipse_39" data-name="Ellipse 39" cx="4.256" cy="4.256" r="4.256" transform="translate(17.322 8.297)" fill="#ff6584"/>
  </g>
</svg>
