<svg id="Arrow" xmlns="http://www.w3.org/2000/svg" width="74.193" height="100" viewBox="0 0 74.193 100">
  <g id="share-arrow" transform="translate(0 0)">
    <g id="Group_27" data-name="Group 27" transform="translate(0 0)">
      <path id="Path_14" data-name="Path 14" d="M149.378,100a5.681,5.681,0,0,0,5.665-5.665V20.128l22.682,18.759a5.684,5.684,0,0,0,7.553-8.5L152.706,1.406a5.7,5.7,0,0,0-7.27-.189,5.7,5.7,0,0,0-2.455,2.266l-28.228,27.1a5.676,5.676,0,1,0,7.836,8.214l21.124-18.665V94.335A5.683,5.683,0,0,0,149.378,100Z" transform="translate(-112.993 0)" fill="#515c6f"/>
    </g>
  </g>
</svg>
