<svg xmlns="http://www.w3.org/2000/svg" width="100.3" height="100.299" viewBox="0 0 100.3 100.299">
  <g id="Icon_Profile" data-name="Icon Profile" transform="translate(0 0)">
    <path id="Profile" d="M92.929,71.884c-2.952-2.951-7.891-5.527-15.677-9.421C73.328,60.5,66.8,57.236,65.211,55.74c6.632-8.152,10.481-17.359,10.481-25.418,0-5.469,0-12.274-3.061-18.344C69.872,6.512,63.706,0,50,0S30.127,6.512,27.371,11.978c-3.065,6.07-3.065,12.875-3.065,18.344,0,8.062,3.846,17.267,10.482,25.418-1.587,1.5-8.12,4.764-12.044,6.723-7.784,3.894-12.723,6.47-15.677,9.421C.529,78.426.034,89.4,0,91.54A8.333,8.333,0,0,0,8.33,100H91.665A8.333,8.333,0,0,0,100,91.536C99.965,89.4,99.467,78.427,92.929,71.884Zm.223,21.243a2.083,2.083,0,0,1-1.487.623H8.33a2.083,2.083,0,0,1-1.48-.623,2.11,2.11,0,0,1-.6-1.492c.018-1.047.305-10.394,5.238-15.329,2.277-2.277,7.045-4.745,14.053-8.252,7.481-3.738,11.63-5.966,13.541-7.773L43.3,56.293l-3.662-4.5c-5.769-7.086-9.08-14.914-9.08-21.472,0-5.057,0-10.785,2.393-15.527C35.814,9.125,41.546,6.25,50,6.25s14.187,2.875,17.05,8.542c2.393,4.745,2.393,10.473,2.393,15.53,0,6.555-3.309,14.383-9.084,21.472L56.7,56.3l4.219,3.986c1.91,1.8,6.055,4.031,13.54,7.773,7.009,3.5,11.776,5.973,14.053,8.252,4.014,4.013,5.183,11.523,5.237,15.329A2.083,2.083,0,0,1,93.152,93.127Z" transform="translate(0.15 0.15)" fill="#515c6f" stroke="#515c6f" stroke-width="0.3"/>
  </g>
</svg>
