<svg xmlns="http://www.w3.org/2000/svg" width="99.735" height="99.928" viewBox="0 0 99.735 99.928">
  <g id="Icon_Invite" data-name="Icon Invite" transform="translate(0.05 0.05)">
    <path id="invite" d="M96.914,36.748,84.473,26.328V20.821a7.6,7.6,0,0,0-7.581-7.6H68.823L56.143,2.6a9.674,9.674,0,0,0-12.652,0L30.812,13.219H22.743a7.6,7.6,0,0,0-7.581,7.6v5.506L2.721,36.748A7.617,7.617,0,0,0,0,42.584V90.3a9.772,9.772,0,0,0,9.747,9.775H89.888A9.772,9.772,0,0,0,99.635,90.3V42.584A7.617,7.617,0,0,0,96.914,36.748Zm-12.441-1.93,6.844,5.733-6.844,5.733ZM47.671,7.588l.032-.027a3.225,3.225,0,0,1,4.229,0l.032.027,6.723,5.631H40.949ZM21.66,27.831h0V20.822a1.086,1.086,0,0,1,1.083-1.086H76.892a1.086,1.086,0,0,1,1.083,1.086V27.83h0v23.9L51.964,73.516l-.032.027a3.225,3.225,0,0,1-4.229,0l-.032-.027L21.66,51.728Zm-6.5,6.987V46.285L8.317,40.552ZM93.137,90.3a3.257,3.257,0,0,1-3.249,3.258H9.747A3.257,3.257,0,0,1,6.5,90.3V47.519L43.49,78.5a9.674,9.674,0,0,0,12.652,0L83.29,55.767l0,0,9.845-8.247Z" transform="translate(0 -0.243)" fill="#515c6f" stroke="#515c6f" stroke-width="0.1"/>
  </g>
</svg>
