<svg xmlns="http://www.w3.org/2000/svg" width="114.067" height="100.5" viewBox="0 0 114.067 100.5">
  <g id="Icon_All_Orders" data-name="Icon All Orders" transform="translate(0.25 0.25)">
    <g id="Group_82" data-name="Group 82">
      <path id="Path_34" data-name="Path 34" d="M10.616,50.5A10.626,10.626,0,1,0,0,39.866,10.63,10.63,0,0,0,10.616,50.5Zm0-16.317a5.681,5.681,0,1,1-5.681,5.681A5.687,5.687,0,0,1,10.616,34.185Z" transform="translate(0 -29.25)" fill="#515c6f" stroke="#515c6f" stroke-width="0.5"/>
      <path id="Path_35" data-name="Path 35" d="M10.616,213.382A10.616,10.616,0,1,0,0,202.766,10.63,10.63,0,0,0,10.616,213.382Zm0-16.3a5.681,5.681,0,1,1-5.681,5.681A5.687,5.687,0,0,1,10.616,197.085Z" transform="translate(0 -152.766)" fill="#515c6f" stroke="#515c6f" stroke-width="0.5"/>
      <path id="Path_36" data-name="Path 36" d="M10.616,376.282A10.616,10.616,0,1,0,0,365.666,10.63,10.63,0,0,0,10.616,376.282Zm0-16.317a5.681,5.681,0,1,1-5.681,5.681A5.687,5.687,0,0,1,10.616,359.965Z" transform="translate(0 -276.282)" fill="#515c6f" stroke="#515c6f" stroke-width="0.5"/>
      <path id="Path_37" data-name="Path 37" d="M166.078,74.605h60.734a2.478,2.478,0,1,0,0-4.955H166.078a2.478,2.478,0,1,0,0,4.955Z" transform="translate(-115.723 -61.512)" fill="#515c6f" stroke="#515c6f" stroke-width="0.5"/>
      <path id="Path_38" data-name="Path 38" d="M166.078,237.505h60.734a2.478,2.478,0,1,0,0-4.955H166.078a2.478,2.478,0,1,0,0,4.955Z" transform="translate(-115.723 -185.028)" fill="#515c6f" stroke="#515c6f" stroke-width="0.5"/>
      <path id="Path_39" data-name="Path 39" d="M166.078,400.305h60.734a2.478,2.478,0,1,0,0-4.955H166.078a2.478,2.478,0,1,0,0,4.955Z" transform="translate(-115.723 -308.464)" fill="#515c6f" stroke="#515c6f" stroke-width="0.5"/>
    </g>
  </g>
</svg>
