<svg xmlns="http://www.w3.org/2000/svg" width="79.507" height="100.2" viewBox="0 0 79.507 100.2">
  <g id="Icon_Finished" data-name="Icon Finished" transform="translate(0.108 0.1)">
    <path id="finished" d="M16.284,100A16.283,16.283,0,0,1,.047,82.474L4.514,26.182a7.033,7.033,0,0,1,6.979-6.456h8.825v-.4a19.33,19.33,0,1,1,38.659,0v.4H67.8a7.03,7.03,0,0,1,6.979,6.464l4.467,56.276A16.277,16.277,0,0,1,63.008,100ZM10.356,26.641,5.889,82.928a10.418,10.418,0,0,0,10.4,11.213H63.008A10.419,10.419,0,0,0,73.4,82.92L68.939,26.649A1.149,1.149,0,0,0,67.8,25.585h-8.82V32.8a2.929,2.929,0,1,1-5.858,0V25.585H26.172V32.8a2.927,2.927,0,1,1-5.854,0V25.585H11.493A1.145,1.145,0,0,0,10.356,26.641ZM26.172,19.33v.4H53.12v-.4a13.474,13.474,0,0,0-26.948,0Zm6.353,50.83-8.292-8.292a3.422,3.422,0,0,1,4.839-4.84L34.947,62.9,50.223,47.627a3.421,3.421,0,0,1,4.835,4.84L37.365,70.16a3.422,3.422,0,0,1-4.84,0Z" fill="#515c6f" stroke="#515c6f" stroke-width="0.2"/>
  </g>
</svg>
