<svg id="Icon_Suggest" data-name="Icon Suggest" xmlns="http://www.w3.org/2000/svg" width="99.999" height="100" viewBox="0 0 99.999 100">
  <path id="Path_40" data-name="Path 40" d="M84.814,94.955A3.948,3.948,0,0,0,80.866,98.9v23.99a5.042,5.042,0,0,1-5.036,5.037h-62.9A5.042,5.042,0,0,1,7.9,122.894V60a5.042,5.042,0,0,1,5.036-5.036h23.99a3.948,3.948,0,0,0,0-7.9H12.934A12.948,12.948,0,0,0,0,60v62.9a12.949,12.949,0,0,0,12.934,12.933h62.9a12.948,12.948,0,0,0,12.934-12.934V98.9A3.948,3.948,0,0,0,84.814,94.955Z" transform="translate(0 -35.828)" fill="#515c6f"/>
  <path id="Path_41" data-name="Path 41" d="M224.434,22.864,202.952,1.383a4.72,4.72,0,0,0-6.675,0l-53.7,53.7a4.722,4.722,0,0,0-1.383,3.338V79.906a4.72,4.72,0,0,0,4.72,4.72h21.482a4.719,4.719,0,0,0,3.337-1.382l53.7-53.7a4.72,4.72,0,0,0,0-6.675Zm-59,52.322H150.631V60.38L199.615,11.4,214.421,26.2Z" transform="translate(-125.817 0)" fill="#515c6f"/>
</svg>
