<svg xmlns="http://www.w3.org/2000/svg" width="107.084" height="100" viewBox="0 0 107.084 100">
  <g id="Icon_Pending_Payment" data-name="Icon Pending Payment" transform="translate(-0.002)">
    <path id="pending_payment" data-name="pending payment" d="M81.284,100c-6.728,0-13.126-3.05-18.017-8.582a28.58,28.58,0,0,1-7.21-18.625V56.6a4.254,4.254,0,0,1,2.516-3.879l20.875-9.329a6.578,6.578,0,0,1,4.245,0l20.876,9.329a4.244,4.244,0,0,1,2.516,3.879v16.2a28.58,28.58,0,0,1-7.21,18.625C94.984,96.95,88.585,100,81.857,100ZM64.562,59.358V72.793c0,8.828,7.151,18.7,16.722,18.7h.574c9.57,0,16.722-9.874,16.722-18.7V59.358l-17.01-7.6ZM16.731,78.287A16.709,16.709,0,0,1,0,61.633V16.659A16.713,16.713,0,0,1,16.731,0H90.352a16.716,16.716,0,0,1,16.732,16.659V38.753a4.183,4.183,0,0,1-8.365,0V30.426H8.365V61.633a8.356,8.356,0,0,0,8.365,8.327H44.55a4.164,4.164,0,1,1,0,8.327ZM8.365,16.659V22.1H98.719V16.659a8.356,8.356,0,0,0-8.366-8.327H16.731A8.356,8.356,0,0,0,8.365,16.659Z" transform="translate(0.002)" fill="#515c6f"/>
  </g>
</svg>
