<svg xmlns="http://www.w3.org/2000/svg" width="100.407" height="97.48" viewBox="0 0 100.407 97.48">
  <g id="Icon_Cart" data-name="Icon Cart" transform="translate(0.005 0.005)">
    <path id="Cart" d="M170.074,93.889h-72.4l-4.17-9.8a3.425,3.425,0,0,0-2.367-1.993l-13.431-3.16A3.425,3.425,0,0,0,76.14,85.6l11.742,2.763,30.061,70.663a11.323,11.323,0,1,0,20.284,1.139h12.331a11.325,11.325,0,1,0,10.426-6.9l-38.027.053-4.69-11.025h51.807a3.425,3.425,0,0,0,3.425-3.425V97.314A3.425,3.425,0,0,0,170.074,93.889Zm-9.082,66.228a4.475,4.475,0,1,1-4.475,4.475A4.475,4.475,0,0,1,160.991,160.117Zm-33.172,0a4.475,4.475,0,1,1-4.475,4.475A4.475,4.475,0,0,1,127.819,160.117Zm38.83-45.451h-22.7a3.425,3.425,0,0,0,0,6.849h22.7v13.927h-51.3l-14.763-34.7h66.059Z" transform="translate(-73.297 -78.64)" fill="#515c6f" stroke="#515c6f" stroke-width="0.4"/>
  </g>
</svg>
